<?xml version="1.0" encoding="utf-8"?>
<!-- Generator: Adobe Illustrator 23.0.0, SVG Export Plug-In . SVG Version: 6.00 Build 0)  -->
<svg version="1.1" xmlns="http://www.w3.org/2000/svg" xmlns:xlink="http://www.w3.org/1999/xlink" x="0px" y="0px"
	 viewBox="0 0 300 90" style="enable-background:new 0 0 300 90;" xml:space="preserve">
<style type="text/css">
	.st0{fill:#FFFFFF;}
	.st1{opacity:0.26;}
	.st2{fill:#1B6DA4;}
</style>
<g id="Layer_2">
</g>
<g id="Layer_1">
	<path class="st0" d="M42.09,70.47c-16.08,0-29.16-13.08-29.16-29.16c0-16.08,13.08-29.16,29.16-29.16s29.16,13.08,29.16,29.16
		C71.24,57.38,58.16,70.47,42.09,70.47z M42.09,14.15c-14.97,0-27.15,12.18-27.15,27.15c0,14.97,12.18,27.15,27.15,27.15
		s27.15-12.18,27.15-27.15C69.24,26.33,57.06,14.15,42.09,14.15z"/>
	<g class="st1">
		<circle class="st2" cx="42.09" cy="41.31" r="28.16"/>
		<path class="st0" d="M42.09,70.47c-16.08,0-29.16-13.08-29.16-29.16c0-16.08,13.08-29.16,29.16-29.16s29.16,13.08,29.16,29.16
			C71.24,57.38,58.16,70.47,42.09,70.47z M42.09,14.15c-14.97,0-27.15,12.18-27.15,27.15c0,14.97,12.18,27.15,27.15,27.15
			s27.15-12.18,27.15-27.15C69.24,26.33,57.06,14.15,42.09,14.15z"/>
	</g>
	<g>
		<g class="st1">
			<circle class="st0" cx="64.64" cy="59.6" r="16.71"/>
			<path class="st0" d="M64.64,77.32c-9.77,0-17.71-7.95-17.71-17.71s7.95-17.71,17.71-17.71s17.71,7.95,17.71,17.71
				S74.41,77.32,64.64,77.32z M64.64,43.9c-8.66,0-15.71,7.05-15.71,15.71s7.05,15.71,15.71,15.71s15.71-7.05,15.71-15.71
				S73.31,43.9,64.64,43.9z"/>
		</g>
		<path class="st0" d="M64.64,77.32c-9.77,0-17.71-7.95-17.71-17.71s7.95-17.71,17.71-17.71s17.71,7.95,17.71,17.71
			S74.41,77.32,64.64,77.32z M64.64,43.9c-8.66,0-15.71,7.05-15.71,15.71s7.05,15.71,15.71,15.71s15.71-7.05,15.71-15.71
			S73.31,43.9,64.64,43.9z"/>
	</g>
	<g>
		<path class="st0" d="M133.38,65.33l-2.6-27.85c0-0.27-0.05-1.49-0.05-1.7c-0.11,0.21-0.48,1.22-0.64,1.44l-15.04,29.6l-15.09-29.6
			c-0.27-0.48-0.48-1.01-0.64-1.49c0.05,0.48,0.05,1.22-0.05,1.75l-2.55,27.85h-3.99l4.41-41.35l17.17,32.84
			c0.16,0.32,0.69,1.43,0.8,1.97c0.11-0.53,0.58-1.65,0.74-1.97l17.11-32.84l4.41,41.35H133.38z"/>
		<path class="st0" d="M142.69,79.09l8.29-16.26L140.4,39.76h3.93l8.56,19.61l9.35-19.61h3.88l-19.72,39.33H142.69z"/>
		<path class="st0" d="M164,65.27l22.96-36.72h-18.92v-3.4h25.35l-22.96,36.72h23.33v3.4H164z"/>
		<path class="st0" d="M209.81,66.02c-7.65,0-13.66-5.85-13.66-13.45c0-7.6,6.01-13.5,13.71-13.5c7.65,0,13.55,6.06,13.55,13.5
			C223.41,60.06,217.46,66.02,209.81,66.02z M219.69,52.57c0-6.01-4.57-10.42-9.94-10.42c-5.9,0-9.99,4.41-9.99,10.58
			c0,5.95,4.78,10.2,9.94,10.2C215.65,62.93,219.69,58.79,219.69,52.57z"/>
		<path class="st0" d="M247.6,65.33V50.23c0-5.47-1.81-7.87-6.8-7.87c-3.61,0-6.48,2.18-7.6,3.4v19.56h-3.51V39.76h3.51v2.71
			c1.44-1.28,4.31-3.4,8.61-3.4c5.95,0,9.3,2.92,9.3,9.51v16.74H247.6z"/>
		<path class="st0" d="M281.02,61.76c-1.7,2.34-5.58,4.25-10.63,4.25c-7.6,0-13.18-5.37-13.18-13.34c0-7.97,5.15-13.61,13.02-13.61
			c7.92,0,11.53,6.27,11.53,12.76v0.96h-20.99c0,6.33,4.15,10.2,10.36,10.2c4.41,0,7.07-2.02,8.24-3.35L281.02,61.76z M278.15,49.97
			c-0.43-4.25-3.08-7.87-8.08-7.87c-4.46,0-8.45,2.71-9.14,7.87H278.15z"/>
	</g>
</g>
</svg>
